<svg xmlns="http://www.w3.org/2000/svg" viewBox="0 0 64 64" role="img" aria-labelledby="title desc">
  <title id="title">StayThread mark</title>
  <desc id="desc">A continuous thread loop with a center action node.</desc>
  <defs>
    <linearGradient id="thread" x1="12" y1="12" x2="52" y2="52" gradientUnits="userSpaceOnUse">
      <stop offset="0" stop-color="#3f6ff2"/>
      <stop offset="0.58" stop-color="#3978dc"/>
      <stop offset="1" stop-color="#2f9d75"/>
    </linearGradient>
    <filter id="softShadow" x="-20%" y="-20%" width="140%" height="140%">
      <feDropShadow dx="0" dy="3" stdDeviation="3" flood-color="#1a2a3a" flood-opacity="0.16"/>
    </filter>
  </defs>
  <rect width="64" height="64" rx="16" fill="#f7fafc"/>
  <path d="M17 36c0-10 7-18 17-18 8 0 14 5 14 12 0 6-4 10-10 10H24c-5 0-9 3-9 8 0 4 3 7 8 7 7 0 13-4 18-12l6-10" fill="none" stroke="url(#thread)" stroke-width="6" stroke-linecap="round" stroke-linejoin="round" filter="url(#softShadow)"/>
  <circle cx="32" cy="32" r="8" fill="#ffffff" stroke="#1f2937" stroke-width="2.5"/>
  <path d="M29 32.5l2.2 2.2L36 29.5" fill="none" stroke="#2f9d75" stroke-width="2.8" stroke-linecap="round" stroke-linejoin="round"/>
</svg>
